<svg xmlns="http://www.w3.org/2000/svg" xmlns:xlink="http://www.w3.org/1999/xlink" version="1.1" id="Capa_1" x="0px" y="0px" width="100px" height="100px" viewBox="0 0 100 100" enable-background="new 0 0 100 100" xml:space="preserve">
<path fill="#000000" stroke="#1A171B" stroke-width="0.1014" d="M18.522,41.548c1.527-1.625,2.681-1.078,3.178-0.735  c0.285,0.136,0.577,0.339,0.902,0.543l0.184,0.15c0.531,0.476,6.509,7.276,6.509,7.276l7.84,0.84  c1.628,0.144,2.124,0.28,2.205,1.367c0.052,1.268-1.023,1.465-1.89,1.58c-0.868,0.115-5.911-0.106-7.8-0.198  c-1.253-0.025-1.402,0.037-2.014-0.269c-0.409-0.171-5.084-4.542-5.084-4.542s-7.119,8.683-6.573,8.754  c0.544,0.07,8.185,0.795,9.318,2.66c1.014,1.146,0.834,4.386,0.834,4.386l-1.346,11.168c0,1.83-0.713,2.458-1.973,2.519  c-1.392-0.224-1.608-0.621-1.608-2.451c0,0,0.726-12.226,0.726-12.245c0,0-11.577,0.658-13.831-1.596  c-1.846-3.939,3.385-10.833,3.385-10.833L18.522,41.548z"/>
<path fill="#000000" stroke="#1A171B" stroke-width="0.1014" d="M29.048,37.163L29.048,37.163c0,2.161-1.749,3.906-3.906,3.906  c-2.162,0-3.91-1.746-3.91-3.906c0-2.171,1.748-3.917,3.91-3.917C27.299,33.246,29.048,34.992,29.048,37.163L29.048,37.163z"/>
<path fill="#000000" stroke="#1A171B" stroke-width="0.1014" d="M85.912,41.548c-1.527-1.625-2.682-1.078-3.178-0.735  c-0.285,0.136-0.577,0.339-0.902,0.543l-0.184,0.15c-0.531,0.476-6.509,7.276-6.509,7.276l-7.84,0.84  c-1.629,0.144-2.124,0.28-2.205,1.367c-0.052,1.268,1.021,1.465,1.89,1.58s5.91-0.106,7.799-0.198  c1.254-0.025,1.403,0.037,2.015-0.269c0.409-0.171,5.084-4.542,5.084-4.542s2.686,8.683,2.14,8.754  c-0.544,0.07-8.185,0.795-9.318,2.66c-1.015,1.146-2.675,7.813-2.675,7.813l-1.987,8.111c-0.228,1.026-0.132,2.457,1.129,2.518  c0.995,0.022,1.912-0.779,2.451-2.451c0,0,4.448-12.595,4.448-12.614c0,0,11.104,1.016,13.357-1.238  c1.846-3.938-1.347-11.352-1.347-11.352L85.912,41.548z"/>
<path fill="#000000" stroke="#1A171B" stroke-width="0.1014" d="M76.864,36.424L76.864,36.424c0,2.161,1.75,3.906,3.906,3.906  c2.163,0,3.91-1.746,3.91-3.906c0-2.171-1.747-3.917-3.91-3.917C78.614,32.507,76.864,34.253,76.864,36.424L76.864,36.424z"/>
<rect x="19.212" y="53.368" width="58.743" height="1.478"/>
<polygon points="73.948,55.153 23.221,55.153 23.221,57.154 28.66,57.154 28.66,77.75 30.66,77.75 30.66,57.154 66.508,57.154   66.508,77.75 68.508,77.75 68.508,57.154 73.948,57.154 "/>
<path fill="#000000" stroke="#1A171B" stroke-width="0.2086" d="M20.658,62.908c0,0-10.035-0.119-13.479-1.151  c-1.099-0.434-1.601,1.4-1.601,1.706v0.861c0,0.307,0.249,0.554,0.555,0.554h5.952l0.019,0.37c-0.271,0.175-0.592,0.279-0.938,0.279  H6.178c-0.959,0-1.74-0.78-1.74-1.739v-6.84c0-0.58,0.288-1.092,0.726-1.408l0.159,4.28c0.01,0.288,0.253,0.513,0.54,0.501  l0.812-0.029c0.289-0.011,0.513-0.252,0.503-0.541L6.799,49.553c-0.01-0.288-0.253-0.513-0.541-0.502L5.447,49.08  c-0.288,0.011-0.512,0.253-0.502,0.541l0.176,4.754c-1.012,0.418-1.727,1.412-1.727,2.573v6.84c0,1.534,1.249,2.783,2.784,2.783  h4.986c0.351,0,0.684-0.072,0.994-0.191l0.275,5.534h0.407v0.556l-5.808,3.802c-0.155,0.102-0.232,0.268-0.24,0.438  c-0.051,0.103-0.085,0.215-0.085,0.337c0,0.425,0.344,0.768,0.768,0.768c0.425,0,0.768-0.343,0.768-0.768  c0-0.076-0.022-0.146-0.043-0.215l4.314-2.823l-0.738,2.987c-0.281,0.114-0.479,0.389-0.479,0.709c0,0.425,0.343,0.77,0.768,0.77  c0.425,0,0.769-0.345,0.769-0.77c0-0.072-0.022-0.139-0.042-0.205l0.953-3.852l4.777,3.128c-0.012,0.054-0.032,0.104-0.032,0.161  c0,0.425,0.343,0.768,0.768,0.768c0.424,0,0.769-0.343,0.769-0.768c0-0.03-0.014-0.056-0.017-0.085  c0.048-0.218-0.036-0.451-0.234-0.581l-5.827-3.814v-0.543h0.406l0.35-7.036h5.953c0.306,0,0.554-0.247,0.554-0.554v-0.861  C21.211,63.157,20.964,62.908,20.658,62.908z"/>
<path fill="#000000" stroke="#1A171B" stroke-width="0.2086" d="M94.88,54.375l0.176-4.754c0.011-0.288-0.214-0.53-0.501-0.541  l-0.812-0.029c-0.289-0.011-0.531,0.214-0.541,0.502l-0.378,10.198c-0.011,0.289,0.214,0.53,0.502,0.541l0.813,0.029  c0.287,0.012,0.529-0.213,0.54-0.501l0.158-4.28c0.438,0.316,0.726,0.828,0.726,1.408v6.84c0,0.959-0.78,1.739-1.739,1.739h-4.986  c-0.346,0-0.667-0.104-0.938-0.279l0.01-0.185h6.203c0.306,0,0.554-0.249,0.554-0.555v-0.861c0-0.306-0.501-2.14-1.601-1.707  c-3.443,1.033-13.479,1.153-13.479,1.153c-0.307,0-0.555,0.248-0.555,0.554v0.861c0,0.306,0.248,0.555,0.555,0.555h5.719  l0.342,6.851h0.405v0.543l-5.827,3.814c-0.133,0.087-0.214,0.223-0.239,0.367c-0.096,0.129-0.163,0.28-0.163,0.453  c0,0.423,0.343,0.768,0.768,0.768s0.768-0.345,0.768-0.768c0-0.074-0.022-0.142-0.042-0.209l4.94-3.234l0.896,3.624  c-0.064,0.112-0.111,0.236-0.111,0.375c0,0.425,0.344,0.769,0.769,0.769s0.768-0.344,0.768-0.769c0-0.265-0.142-0.486-0.346-0.625  l-0.745-3.014l4.363,2.855c-0.019,0.065-0.041,0.13-0.041,0.201c0,0.425,0.343,0.769,0.768,0.769s0.768-0.344,0.768-0.769  c0-0.156-0.058-0.292-0.137-0.413c-0.023-0.15-0.103-0.291-0.239-0.381L87.16,72.47v-0.556h0.407l0.275-5.534  c0.31,0.119,0.643,0.191,0.994,0.191h4.986c1.534,0,2.783-1.249,2.783-2.783v-6.84C96.606,55.787,95.892,54.793,94.88,54.375z"/>
</svg>