<?xml version="1.0" ?><!DOCTYPE svg  PUBLIC '-//W3C//DTD SVG 1.0//EN'  'http://www.w3.org/TR/2001/REC-SVG-20010904/DTD/svg10.dtd'><svg enable-background="new 0 0 460 460" height="460px" id="Layer_1" version="1.0" viewBox="0 0 460 460" width="460px" xml:space="preserve" xmlns="http://www.w3.org/2000/svg" xmlns:xlink="http://www.w3.org/1999/xlink"><g><g><g><path d="M85.899,200.576c15.365,0,27.821-13.818,27.821-32.151c0-18.334-12.456-29.022-27.821-29.022     s-27.821,10.688-27.821,29.022C58.079,186.758,70.534,200.576,85.899,200.576z" fill="#333333"/><path d="M191.873,241.5h-45.53c-17.85-9-37.056-25.895-40.871-28.298c-1.316-1.107-2.854-1.629-4.479-2.038     c-1.357-0.583-2.849-0.664-4.42-0.664H69.664c-6.191,0-11.211,4.729-11.211,10.92l2.243,86.185c0,4.834,3.064,8.869,7.35,10.443     c1.414,0.921,3.051,1.508,4.841,1.71l77.641-0.071l-1.812,83.179c-0.256,6.187,4.553,11.405,10.739,11.662     c0.157,0.006,0.314,0.007,0.472,0.007c5.977,0,10.945-4.72,11.194-10.749l5.605-93.618c0.243-5.876-4.096-10.943-9.941-11.604     l-53.791-10.561l-2.613-33.536c7.605,2.536,16.88,5.628,28.215,8.442c1.708,0.423,3.305,1.591,5.064,1.591h48.211     c6.192,0,11.211-5.308,11.211-11.5S198.065,241.5,191.873,241.5z" fill="#333333"/></g><path d="M142.541,342c0-7.431-6.024-13.5-13.454-13.5H55.549L36.067,226.864    c-1.404-7.296-8.454-12.288-15.755-10.882c-7.297,1.404-12.073,8.351-10.668,15.648l21.582,112.538    c1.221,6.334,6.763,11.332,13.212,11.332h14.481l-16.53,52.438c-0.973,2.61,0.353,5.279,2.963,6.252    c2.612,0.975,5.517,0.004,6.491-2.606L69.475,355.5h32.892l17.634,55.963c0.973,2.611,3.879,3.701,6.49,2.727    c2.611-0.973,3.937-3.522,2.963-6.134l-16.53-52.556h16.163C136.517,355.5,142.541,349.432,142.541,342z" fill="#333333"/><g><path d="M374.02,200.576c15.557,0,28.167-13.99,28.167-32.552s-12.61-29.383-28.167-29.383     s-28.167,10.821-28.167,29.383S358.463,200.576,374.02,200.576z" fill="#333333"/><path d="M390.601,210.5h-26.908c-1.569,0-3.063,0.034-4.42,0.617c-1.624,0.408-3.163,1.122-4.479,2.229     c-3.814,2.403-23.021,19.153-40.87,28.153h-45.531c-6.191,0-11.212,5.308-11.212,11.5s5.021,11.5,11.212,11.5h48.21     c1.76,0,3.357-1.168,5.065-1.591c11.335-2.814,20.61-5.716,28.215-8.251l-2.612,33.44l-53.792,10.512     c-5.844,0.663-10.185,5.704-9.94,11.58l5.605,93.606c0.25,6.029,5.217,10.742,11.194,10.742c0.157,0,0.313,0.003,0.472-0.003     c6.188-0.257,10.994-5.491,10.739-11.677l-1.812-83.189l77.64,0.053c1.791-0.203,3.43-0.827,4.844-1.747     c4.286-1.575,7.35-5.682,7.35-10.515l2.242-86.041C401.813,215.229,396.793,210.5,390.601,210.5z" fill="#333333"/></g><path d="M439.797,215.764c-7.298-1.399-14.346,3.818-15.741,11.116L404.702,328.5h-73.804    c-7.431,0-13.455,6.069-13.455,13.5c0,7.432,6.024,13.5,13.455,13.5h16.443l-16.53,52.438c-0.975,2.61,0.353,5.279,2.963,6.252    c2.611,0.975,5.517,0.004,6.491-2.606l17.632-56.083h32.893l17.633,55.963c0.974,2.611,3.88,3.701,6.49,2.727    c2.61-0.973,3.938-3.522,2.963-6.134l-16.53-52.556h14.481c6.456,0,12.002-5.061,13.215-11.401l21.442-112.354    C451.881,224.445,447.096,217.16,439.797,215.764z" fill="#333333"/><g><path d="M328.282,264.5H129.834c-2.477,0-4.485,3.758-4.485,8c0,4.243,2.008,8,4.485,8h198.448     c2.477,0,4.484-3.757,4.484-8C332.767,268.258,330.759,264.5,328.282,264.5z" fill="#333333"/><rect fill="#333333" height="130" width="44" x="206.5" y="285.5"/></g></g><path d="M180.794,46.5h-75.573c-6.107,0-10.722,4.893-10.722,11.002v47.52c0,6.108,4.615,10.479,10.722,10.479   h1.944l-2.219,16.631l16.327-16.631h59.52c6.108,0,11.706-4.371,11.706-10.479v-47.52C192.5,51.393,186.902,46.5,180.794,46.5z" fill="#267DDB"/><path d="M350.644,46.5H275.07c-6.107,0-12.57,4.893-12.57,11.002v47.52c0,6.108,6.463,10.479,12.57,10.479h59.52   l16.328,16.631L348.7,115.5h1.943c6.106,0,9.856-4.371,9.856-10.479v-47.52C360.5,51.393,356.75,46.5,350.644,46.5z" fill="#267DDB"/></g></svg>