<svg xmlns="http://www.w3.org/2000/svg" xmlns:xlink="http://www.w3.org/1999/xlink" version="1.0" id="Layer_1" x="0px" y="0px" viewBox="0 0 26 26" style="enable-background:new 0 0 26 26;" xml:space="preserve" height="100px" width="100px">
<path d="M22,3h-1V2c0-1.159-0.841-2-2-2H4C2.841,0,2,0.841,2,2v19c0,1.159,0.841,2,2,2h1v1c0,1.159,0.841,2,2,2h15  c1.159,0,2-0.841,2-2V5C24,3.841,23.159,3,22,3z M6,21H4V2h15v19H6z M22,24H7v-1h12c1.159,0,2-0.841,2-2V5h1V24z M12.8,16  c0,0.718-0.582,1.3-1.3,1.3c-0.718,0-1.3-0.582-1.3-1.3s0.582-1.3,1.3-1.3C12.218,14.7,12.8,15.282,12.8,16z M15.5,8.1  c0,3-3,2.6-3,4.9h-2.1c0-2.9,2.5-3.1,2.5-4.6c0-0.9-0.6-1.5-1.4-1.5c-1,0-1.7,0.4-1.7,2H7.5c0-2.7,2-4.1,4-4.1  C13.9,4.8,15.5,6.1,15.5,8.1z"/>
</svg>